<svg xmlns="http://www.w3.org/2000/svg" width="20" height="20" viewBox="0 0 20 20">
  <defs>
    <style>
      .cls-1 {
        fill: #0e2243;
        fill-rule: evenodd;
      }
    </style>
  </defs>
  <path id="Forma_1" data-name="Forma 1" class="cls-1" d="M192.91,533.09a3.617,3.617,0,0,0-2.653-1.1H177.743a3.759,3.759,0,0,0-3.754,3.754v12.514a3.759,3.759,0,0,0,3.754,3.754h12.514a3.759,3.759,0,0,0,3.754-3.754V535.743A3.617,3.617,0,0,0,192.91,533.09Zm-1.232,6.993-4.588,4.589a0.8,0.8,0,0,1-.587.248,0.817,0.817,0,0,1-.313-0.065,0.779,0.779,0,0,1-.521-0.769V542a11.219,11.219,0,0,0-2.92.306,3.435,3.435,0,0,0-1.695.984q-1.381,1.553-.808,6.166a0.429,0.429,0,0,1-.417.469,0.407,0.407,0,0,1-.326-0.156,9.111,9.111,0,0,1-2.177-5.266q0-.783.065-1.441a9,9,0,0,1,.28-1.453,5.847,5.847,0,0,1,.58-1.421,6.014,6.014,0,0,1,1-1.245,5.508,5.508,0,0,1,1.486-1.03,9.04,9.04,0,0,1,2.118-.665,14.364,14.364,0,0,1,2.816-.254v-2.086a0.779,0.779,0,0,1,.521-0.769,0.742,0.742,0,0,1,.9.183l4.588,4.588A0.818,0.818,0,0,1,191.678,540.083Z" transform="translate(-174 -532)"/>
</svg>
