<svg id="Capa_1" enable-background="new 0 0 465.882 465.882" height="22" viewBox="0 0 465.882 465.882" width="22" xmlns="http://www.w3.org/2000/svg">
  <path d="m436.765 0h-291.177c-16.082 0-29.118 13.036-29.118 29.118v58.235h203.824c32.118 0 58.235 26.118 58.235 58.235v169.852l58.235 33.971-19.412-87.353h19.412c16.082 0 29.118-13.038 29.118-29.118v-203.822c0-16.082-13.035-29.118-29.117-29.118z"/><path d="m320.294 116.471h-291.176c-16.082 0-29.118 13.035-29.118 29.117v203.824c0 16.08 13.036 29.118 29.118 29.118h77.648l-19.412 87.353 149.749-87.353h83.193c16.082 0 29.118-13.038 29.118-29.118v-203.824c-.002-16.082-13.038-29.117-29.12-29.117zm-218.382 174.705c-8.04 0-14.559-6.519-14.559-14.559 0-8.042 6.519-14.559 14.559-14.559 8.042 0 14.559 6.517 14.559 14.559 0 8.041-6.517 14.559-14.559 14.559zm72.794 0c-8.04 0-14.559-6.519-14.559-14.559 0-8.042 6.519-14.559 14.559-14.559 8.042 0 14.559 6.517 14.559 14.559 0 8.041-6.517 14.559-14.559 14.559zm72.794 0c-8.04 0-14.559-6.519-14.559-14.559 0-8.042 6.519-14.559 14.559-14.559 8.042 0 14.559 6.517 14.559 14.559 0 8.041-6.517 14.559-14.559 14.559z" fill="#1d304f"/>
</svg>
