<svg xmlns="http://www.w3.org/2000/svg" width="20" height="16" viewBox="0 0 20 16">
  <defs>
    <style>
      .cls-1 {
        fill: #0e2243;
        fill-rule: evenodd;
      }
    </style>
  </defs>
  <path id="Forma_1" data-name="Forma 1" class="cls-1" d="M192.436,190a1.691,1.691,0,0,0,1.171-.45l-5.667-5.768c-0.136.1-.267,0.195-0.392,0.287q-0.636.477-1.033,0.744a6.279,6.279,0,0,1-1.054.545,3.159,3.159,0,0,1-1.228.278h-0.022a3.159,3.159,0,0,1-1.228-.278,6.279,6.279,0,0,1-1.054-.545q-0.4-.267-1.033-0.744c-0.118-.089-0.249-0.185-0.391-0.289l-5.667,5.77a1.688,1.688,0,0,0,1.17.45h16.428Zm-17.086-9.851a5.96,5.96,0,0,1-1.128-.989v8.777l5-5.084Q177.717,181.785,175.35,180.148Zm17.756,0q-2.28,1.571-3.876,2.705l4.992,5.083v-8.777A6.2,6.2,0,0,1,193.106,180.148ZM192.436,174H176.008a1.585,1.585,0,0,0-1.323.59,2.328,2.328,0,0,0-.463,1.478,2.684,2.684,0,0,0,.614,1.551,5.6,5.6,0,0,0,1.306,1.312q0.38,0.273,2.288,1.619l1.8,1.271c0.437,0.311.814,0.579,1.126,0.8l0.167,0.12,0.307,0.226q0.363,0.267.6,0.432c0.16,0.11.353,0.233,0.581,0.369a3.328,3.328,0,0,0,.641.307,1.75,1.75,0,0,0,.558.1h0.023a1.74,1.74,0,0,0,.557-0.1,3.28,3.28,0,0,0,.642-0.307q0.341-.2.581-0.369t0.6-.432l0.307-.225c0.075-.055.131-0.1,0.167-0.121l1.129-.8,4.094-2.894a5.355,5.355,0,0,0,1.362-1.4,3.041,3.041,0,0,0,.546-1.715,1.759,1.759,0,0,0-.53-1.284A1.711,1.711,0,0,0,192.436,174Z" transform="translate(-174.219 -174)"/>
</svg>
