<svg xmlns="http://www.w3.org/2000/svg" width="30.156" height="31.406" viewBox="0 0 30.156 31.406">
  <defs>
    <style>
      .cls-1 {
        fill: #1a2f52;
        fill-rule: evenodd;
      }
    </style>
  </defs>
  <path id="Forma_1" data-name="Forma 1" class="cls-1" d="M62.688,494.477l-1.5-1.5a1.6,1.6,0,0,0-2.217,0l-8.08,8.118-1.114,4.1-0.273.274a0.528,0.528,0,0,0,0,.741l0,0.011,0.01,0a0.52,0.52,0,0,0,.738,0l0.273-.274,4.083-1.119,8.08-8.117A1.582,1.582,0,0,0,62.688,494.477Zm-10.58,6.888,5.377-5.4,2.228,2.238-5.377,5.4Zm-0.474,1.016,1.691,1.7L51,504.717Zm10.311-6.423-1.49,1.5-2.228-2.238,1.49-1.5a0.526,0.526,0,0,1,.731,0l1.5,1.5A0.522,0.522,0,0,1,61.946,495.958Zm-24.523-1.335h13.65A0.526,0.526,0,0,0,51.6,494.1,1.385,1.385,0,0,0,51,493H37c-0.29,0-.1.8-0.1,1.1A0.526,0.526,0,0,0,37.422,494.623Zm11.55,2.109H37.422a0.528,0.528,0,0,0,0,1.055h11.55A0.528,0.528,0,0,0,48.972,496.732Zm-11.55-11.6h6.825a0.528,0.528,0,0,0,0-1.055H37.422A0.528,0.528,0,0,0,37.422,485.129Zm6.825,15.823a0.528,0.528,0,0,0,0-1.055H37.422a0.528,0.528,0,0,0,0,1.055h6.825ZM53,487H37c-0.29,0-.1.475-0.1,0.766a0.526,0.526,0,0,0,.525.528H52.647a0.526,0.526,0,0,0,.525-0.528C53.172,487.475,53.29,487,53,487Zm-15.578,4.458h7.35a0.526,0.526,0,0,0,.525-0.527c0-.292-0.008-0.931-0.3-0.931H38a1.769,1.769,0,0,0-1.1.931A0.526,0.526,0,0,0,37.422,491.458Zm15.75-.527c0-.292.118-0.931-0.172-0.931H49a1.051,1.051,0,0,0-.553.931,0.526,0.526,0,0,0,.525.527h3.675A0.526,0.526,0,0,0,53.172,490.931Zm-5.927.374a0.537,0.537,0,0,0,0-.749,0.548,0.548,0,0,0-.745,0,0.554,0.554,0,0,0-.152.374A0.527,0.527,0,0,0,47.245,491.305ZM47,504H35l-0.2-24.145L38,480v1a1.7,1.7,0,0,0,1,1H51a1.7,1.7,0,0,0,1-1v-1h3v11a1.386,1.386,0,0,0,.8.986A2.045,2.045,0,0,0,57,491V480a2.416,2.416,0,0,0-1.2-1.2L52,479v-1a1.273,1.273,0,0,0-.928-0.782h-3.15v-2.055c0-.292-0.632-0.163-0.922-0.163H43c-0.29,0-.853-0.129-0.853.163v2.055H39A1.386,1.386,0,0,0,38,478v1H34a1.7,1.7,0,0,0-1,1v25a1.7,1.7,0,0,0,1,1H47c0.29,0,.4-0.01.4-0.3S47.29,504,47,504Zm-3.8-27.31h3.675v2.11H43.2v-2.11Zm-3.675,1.583h2.625v1.055A1.039,1.039,0,0,0,43,480h4a1.144,1.144,0,0,0,.922-0.672v-1.055h2.625v2.109H39.522v-2.109Z" transform="translate(-33 -474.969)"/>
</svg>
