<svg xmlns="http://www.w3.org/2000/svg" width="22" height="28" viewBox="0 0 22 28">
  <defs>
    <style>
      .cls-1 {
        fill: #1a2f52;
        fill-rule: evenodd;
      }
    </style>
  </defs>
  <path id="Forma_1" data-name="Forma 1" class="cls-1" d="M47,277.75a3.5,3.5,0,1,0,3.667,3.5A3.59,3.59,0,0,0,47,277.75ZM47,283a1.752,1.752,0,1,1,1.833-1.75A1.8,1.8,0,0,1,47,283Zm0.917,1.75H46.083a4.488,4.488,0,0,0-4.583,4.375,0.9,0.9,0,0,0,.917.875h9.167a0.9,0.9,0,0,0,.917-0.875A4.488,4.488,0,0,0,47.917,284.75Zm-4.426,3.5a2.747,2.747,0,0,1,2.592-1.75h1.833a2.747,2.747,0,0,1,2.592,1.75H43.491ZM56.167,272.5h-2.75a0.876,0.876,0,1,0,0,1.75L56,274l0.167,21.25H37.833v-21h2.75a0.876,0.876,0,1,0,0-1.75h-2.75A1.8,1.8,0,0,0,36,274.25v21A1.8,1.8,0,0,0,37.833,297H56.167A1.8,1.8,0,0,0,58,295.25v-21A1.8,1.8,0,0,0,56.167,272.5ZM47,269a3.59,3.59,0,0,0-3.667,3.5v2.625a0.9,0.9,0,0,0,.917.875h5.5a0.9,0.9,0,0,0,.917-0.875V272.5A3.59,3.59,0,0,0,47,269Zm1.833,5.25H45.167V272.5a1.835,1.835,0,0,1,3.667,0v1.75Zm2.75,17.5H42.417a0.876,0.876,0,1,0,0,1.75h9.167A0.876,0.876,0,1,0,51.583,291.75Z" transform="translate(-36 -269)"/>
</svg>
