<?xml version="1.0" encoding="iso-8859-1"?>
<!-- Generator: Adobe Illustrator 19.0.0, SVG Export Plug-In . SVG Version: 6.00 Build 0)  -->
<svg version="1.1" id="Layer_1" xmlns="http://www.w3.org/2000/svg" xmlns:xlink="http://www.w3.org/1999/xlink" x="0px" y="0px"
	 viewBox="0 0 496.158 496.158" style="enable-background:new 0 0 496.158 496.158;" xml:space="preserve">
<path style="fill:#337180;" d="M496.158,248.085c0-137.022-111.07-248.082-248.076-248.082C111.07,0.003,0,111.063,0,248.085
	c0,137.001,111.07,248.07,248.082,248.07C385.088,496.155,496.158,385.086,496.158,248.085z"/>
<path style="fill:#B5E3EA;" d="M303.303,239.168c0,30.498-24.722,55.224-55.225,55.224l0,0c-30.501,0-55.226-24.726-55.226-55.224
	v-82.836c0-30.497,24.725-55.222,55.226-55.222l0,0c30.503,0,55.225,24.725,55.225,55.222V239.168z"/>
<path style="fill:#337180;" d="M285.229,190.05h-74.3v-31.669c0-20.516,16.632-37.15,37.149-37.15l0,0
	c20.521,0,37.151,16.634,37.151,37.15L285.229,190.05L285.229,190.05z"/>
<path style="fill:#B5E3EA;" d="M337.034,198.308c-6.456,0-11.689,5.232-11.689,11.687v31.184c0,42.606-34.66,77.266-77.267,77.266
	c-42.604,0-77.266-34.66-77.266-77.266v-31.184c0-6.455-5.232-11.687-11.688-11.687c-6.454,0-11.688,5.232-11.688,11.687v31.184
	c0,51.54,38.949,94.129,88.956,99.941v30.554h-27.137c-6.454,0-11.686,5.234-11.686,11.688c0,6.455,5.231,11.687,11.686,11.687
	h77.648c6.454,0,11.686-5.231,11.686-11.687c0-6.454-5.231-11.688-11.686-11.688h-27.137v-30.555
	c50.007-5.812,88.956-48.401,88.956-99.941v-31.184C348.723,203.54,343.488,198.308,337.034,198.308z"/>
<g>
</g>
</svg>
