<?xml version="1.0" encoding="iso-8859-1"?>
<!-- Generator: Adobe Illustrator 19.0.0, SVG Export Plug-In . SVG Version: 6.00 Build 0)  -->
<svg version="1.1" id="Layer_1" xmlns="http://www.w3.org/2000/svg" xmlns:xlink="http://www.w3.org/1999/xlink" x="0px" y="0px"
	 viewBox="0 0 488.2 488.2" style="enable-background:new 0 0 488.2 488.2;" xml:space="preserve">
<g>
	<g>
		<g>
			<path d="M466.95,323c-11.5,0-20.8,9.4-20.8,20.8v103.9H42.05V343.8c0-11.5-9.3-20.8-20.8-20.8s-20.8,9.4-20.8,20.8v123.6
				c0,11.5,9.4,20.8,20.8,20.8h443.5c11.5,0,20.8-9.3,23-20.8V343.8C487.75,332.3,478.45,323,466.95,323z"/>
			<path d="M179.85,246.2v139.2c1,16.8,14.6,23.7,32.2,17.7l86.2-54c5.1-4.2,9.3-10.4,9.3-17.7v-85.2l174.5-213
				c10.4-13.6,3-32.7-15.6-33.2H21.85C3.95,0-3.95,18.4,5.25,33.2L179.85,246.2z M422.85,40.5l-152.6,186c-2.1,3.2-4.2,7.3-4.2,12.5
				v81l-45.7,28V237.9c0-4.2-1.1-9.4-4.2-12.5L64.45,40.5H422.85z"/>
		</g>
	</g>
</g>
<g>
</g>
<g>
</g>
<g>
</g>
<g>
</g>
<g>
</g>
<g>
</g>
<g>
</g>
<g>
</g>
<g>
</g>
<g>
</g>
<g>
</g>
<g>
</g>
<g>
</g>
<g>
</g>
<g>
</g>
</svg>
