<svg height="502.624pt" viewBox="0 0 502.624 502.624" width="502.624pt" xmlns="http://www.w3.org/2000/svg"><path d="m280.394531 373.652344 16-15.996094 11.3125 11.3125-16 15.996094zm0 0"/><path d="m224.96875 429.078125c-3.128906 3.128906-8.183594 3.121094-11.3125 0l-23.433594-23.429687-11.3125 11.3125 23.433594 23.429687c4.679688 4.671875 10.824219 7.007813 16.96875 7.007813s12.289062-2.335938 16.96875-7.015626l46.0625-46.054687-11.3125-11.3125zm0 0"/><path d="m283.3125 0-112 112-97.855469-97.855469c-6.882812-6.886719-16.410156-10.832031-26.144531-10.832031-9.738281 0-19.265625 3.945312-26.144531 10.832031l-7.023438 7.023438c-6.992187 6.992187-10.832031 16.273437-10.832031 26.144531s3.839844 19.152344 10.832031 26.144531l97.855469 97.855469-112 112 219.3125 219.3125 283.3125-283.3125zm-57.433594 225.878906-29.597656-4.230468 25.375-25.375zm-158.566406-147.253906 124.6875 124.6875-12.6875 12.6875-124.6875-124.6875zm136 113.375-124.6875-124.6875 12.6875-12.6875 124.6875 124.6875zm-184-144.6875c0-5.601562 2.175781-10.863281 6.144531-14.832031l7.03125-7.03125c7.800781-7.808594 21.855469-7.808594 29.65625 0l17.855469 17.863281-36.6875 36.6875-17.855469-17.855469c-3.96875-3.96875-6.144531-9.234375-6.144531-14.832031zm3.3125 236 100.6875-100.6875 52.230469 52.230469 69.199219 9.886719-9.886719-69.199219-52.230469-52.230469 100.6875-100.6875 196.6875 196.6875-260.6875 260.6875zm0 0"/><path d="m342.054688 155.3125c-18.496094 0-35.878907 7.207031-48.964844 20.289062l-16.402344 16.398438 33.9375 33.9375 16.398438-16.394531c4.023437-4.015625 9.359374-6.230469 15.03125-6.230469 11.722656 0 21.257812 9.535156 21.257812 21.253906 0 5.671875-2.207031 11.007813-6.222656 15.027344-7.449219 7.445312-17.761719 11.71875-28.28125 11.71875h-47.433594l-7.359375 7.375-57.695313 64.953125 26.640626 26.640625 57.992187-50.96875h27.847656c23.503907 0 45.597657-9.152344 62.214844-25.777344 13.097656-13.078125 20.296875-30.472656 20.296875-48.96875 0-38.183594-31.074219-69.253906-69.257812-69.253906zm37.65625 106.910156c-13.597657 13.601563-31.679688 21.089844-50.902344 21.089844h-33.878906l-51.257813 45.039062-5.367187-5.359374 47.359374-53.335938 2.335938-2.34375h40.808594c14.734375 0 29.167968-5.976562 39.597656-16.402344 7.035156-7.046875 10.90625-16.398437 10.90625-26.34375 0-20.542968-16.710938-37.253906-37.257812-37.253906-9.933594 0-19.292969 3.871094-26.34375 10.910156l-5.085938 5.089844-11.3125-11.3125 5.085938-5.089844c10.066406-10.0625 23.441406-15.597656 37.65625-15.597656 29.371093 0 53.257812 23.886719 53.257812 53.253906 0 14.226563-5.535156 27.59375-15.601562 37.65625zm0 0"/><path d="m179.3125 363.3125c0 13.230469 10.765625 24 24 24 13.230469 0 24-10.769531 24-24 0-13.234375-10.769531-24-24-24-13.234375 0-24 10.765625-24 24zm24-8c4.414062 0 8 3.589844 8 8 0 4.40625-3.585938 8-8 8-4.417969 0-8-3.59375-8-8 0-4.410156 3.582031-8 8-8zm0 0"/><path d="m269.652344 64.96875 11.3125-11.3125 55.996094 55.996094-11.3125 11.3125zm0 0"/><path d="m245.652344 88.96875 11.3125-11.3125 55.996094 55.996094-11.3125 11.3125zm0 0"/><path d="m221.652344 112.96875 11.3125-11.3125 55.996094 55.996094-11.3125 11.3125zm0 0"/><path d="m109.652344 232.96875 11.3125-11.3125 80 79.996094-11.3125 11.316406zm0 0"/><path d="m85.652344 256.96875 11.3125-11.3125 80 79.996094-11.3125 11.316406zm0 0"/><path d="m61.652344 280.96875 11.3125-11.3125 80 79.996094-11.3125 11.3125zm0 0"/></svg>