<svg height="512pt" viewBox="0 -42 512.00138 512" width="512pt" xmlns="http://www.w3.org/2000/svg">
	<path fill="#1a2f52" d="m512 14.769531c0-8.15625-6.613281-14.769531-14.769531-14.769531h-44.304688c-5.835937 0-11.121093 3.433594-13.492187 8.761719-2.375 5.328125-1.390625 11.550781 2.511718 15.886719l13.71875 15.242187-177.265624 94.542969-71.03125-71.03125c-4.28125-4.28125-10.746094-5.515625-16.304688-3.113282l-182.152344 78.769532c-7.484375 3.238281-10.929687 11.929687-7.691406 19.417968 3.191406 7.386719 12.023438 10.890626 19.417969 7.695313l172.941406-74.789063 71.671875 71.675782c4.597656 4.597656 11.660156 5.648437 17.394531 2.585937l193.378907-103.132812 10.230468 11.367187c4.355469 4.84375 11.582032 6.25 17.441406 3.398438 5.03125-2.445313 8.304688-7.683594 8.304688-13.277344zm0 0"/>
	<path fill="#1a2f52" d="m504.832031 100.566406c-4.449219-2.667968-9.972656-2.808594-14.550781-.367187l-211.882812 113.003906-71.027344-71.03125c-4.285156-4.28125-10.746094-5.515625-16.304688-3.113281l-182.15625 78.769531c-5.40625 2.335937-8.90624975 7.664063-8.90624975 13.554687v182.152344c0 8.160156 6.61328175 14.769532 14.76953175 14.769532h482.457031c8.160156 0 14.769531-6.609376 14.769531-14.769532v-300.304687c0-5.1875-2.722656-9.996094-7.167969-12.664063zm-475.289062 140.519532 66.953125-28.953126v186.632813h-66.953125zm96.492187-41.726563 66.953125-28.949219v228.359375h-66.953125zm96.492188-.257813 42.722656 42.726563c4.597656 4.597656 11.660156 5.648437 17.394531 2.585937l6.835938-3.644531v158h-66.953125zm96.488281 25.910157 66.953125-35.703125v209.457031h-66.953125zm163.445313 173.753906h-66.953126v-225.207031l66.953126-35.710938zm0 0"/></svg>