<svg xmlns="http://www.w3.org/2000/svg" xmlns:xlink="http://www.w3.org/1999/xlink" width="26" height="31" viewBox="0 0 26 31">
  <defs>
    <style>
      .cls-1 {
        fill-rule: evenodd;
        filter: url(#filter);
      }
    </style>
    <filter id="filter" x="35" y="582" width="26" height="31" filterUnits="userSpaceOnUse">
      <feFlood result="flood" flood-color="#1a2f52"/>
      <feComposite result="composite" operator="in" in2="SourceGraphic"/>
      <feBlend result="blend" in2="SourceGraphic"/>
    </filter>
  </defs>
  <path class="cls-1" d="M49.019,601.457h-1.73a1.167,1.167,0,0,1,0-2.333h3.046a0.774,0.774,0,0,0,0-1.547H48.906V596.5a0.755,0.755,0,1,0-1.51,0v1.076H47.289a2.714,2.714,0,0,0,0,5.427h1.73a1.167,1.167,0,0,1,0,2.333h-3.1a0.774,0.774,0,0,0,0,1.547H47.4v1.1a0.755,0.755,0,1,0,1.51,0v-1.1h0.145A2.715,2.715,0,0,0,49.019,601.457ZM59.5,599.7a22.263,22.263,0,0,0-3.272-5.375,24.645,24.645,0,0,0-4.191-4.08l3.209-6.1a0.778,0.778,0,0,0-.138-0.916A3.722,3.722,0,0,0,52.417,582a6.222,6.222,0,0,0-2.441.657,4.529,4.529,0,0,1-1.535.471,0.939,0.939,0,0,1-.359-0.065,10.974,10.974,0,0,0-3.763-.908,5.051,5.051,0,0,0-3.788,1.817,0.793,0.793,0,0,0-.088.967l3.461,5.356a24.994,24.994,0,0,0-4.134,4.034A22.462,22.462,0,0,0,36.5,599.7,18.661,18.661,0,0,0,35,607a5.94,5.94,0,0,0,5.858,6H55.142A5.94,5.94,0,0,0,61,607,18.659,18.659,0,0,0,59.5,599.7ZM42.054,584.617a3.249,3.249,0,0,1,2.265-.929,9.62,9.62,0,0,1,3.241.819,2.505,2.505,0,0,0,.875.155,5.471,5.471,0,0,0,2.114-.587,5.012,5.012,0,0,1,1.863-.541,1.964,1.964,0,0,1,1.215.425l-3.02,5.749h-5.26Zm13.088,26.836H40.858A4.407,4.407,0,0,1,36.51,607,18.274,18.274,0,0,1,40.9,595.354a23.3,23.3,0,0,1,4.273-4.1h5.651a22.876,22.876,0,0,1,4.273,4.1A18.224,18.224,0,0,1,59.477,607,4.388,4.388,0,0,1,55.142,611.453Z" transform="translate(-35 -582)"/>
</svg>
