<svg height="11pt" viewBox="0 -10 512 512" width="11pt" xmlns="http://www.w3.org/2000/svg"><path fill="#828d9f" d="m506.144531 356.144531-50.859375 50.855469 50.855469 50.855469c7.8125 7.8125 7.8125 20.476562 0 28.285156-3.902344 3.90625-9.023437 5.859375-14.140625 5.859375s-10.238281-1.953125-14.144531-5.855469l-50.855469-50.859375-50.855469 50.855469c-3.90625 3.90625-9.027343 5.859375-14.144531 5.859375s-10.238281-1.953125-14.144531-5.855469c-7.808594-7.8125-7.808594-20.476562 0-28.285156l50.859375-50.859375-50.855469-50.855469c-7.8125-7.8125-7.8125-20.476562 0-28.285156 7.808594-7.8125 20.472656-7.8125 28.285156 0l50.855469 50.855469 50.855469-50.855469c7.8125-7.8125 20.476562-7.8125 28.285156 0 7.8125 7.808594 7.8125 20.472656.003906 28.285156zm-14.144531-356.144531h-221c-11.046875 0-20 8.953125-20 20s8.953125 20 20 20h201v40h-260v-60c0-11.046875-8.953125-20-20-20h-172c-11.046875 0-20 8.953125-20 20v372c0 44.113281 35.886719 80 80 80h207c11.046875 0 20-8.953125 20-20s-8.953125-20-20-20h-207c-22.054688 0-40-17.945312-40-40v-352h132v60c0 11.046875 8.953125 20 20 20h280v142c0 11.046875 8.953125 20 20 20s20-8.953125 20-20v-242c0-11.046875-8.953125-20-20-20zm0 0"/></svg>
